<svg width="48" height="39" viewBox="0 0 48 39" fill="none" xmlns="http://www.w3.org/2000/svg">
<path d="M16.7999 19.317C22.1024 19.317 26.3999 14.9925 26.3999 9.65848C26.3999 4.32444 22.1024 0 16.7999 0C11.4974 0 7.19996 4.32444 7.19996 9.65848C7.19996 14.9925 11.4974 19.317 16.7999 19.317ZM20.6024 22.9389H12.9974C5.81772 22.9389 0 28.7944 0 36.0156C0 37.4644 1.16399 38.6339 2.59949 38.6339H30.9973C32.4373 38.6339 33.5998 37.4644 33.5998 36.0156C33.5998 28.7944 27.7798 22.9389 20.6024 22.9389Z" fill="#ff2a5b"/>
<path opacity="0.4" d="M35.9326 24.146H30.3939C33.8401 26.9907 36.0001 31.2465 36.0001 36.0154C36.0001 36.9812 35.7151 37.8716 35.2501 38.6337H45.6001C46.9275 38.6337 48 37.5472 48 36.1512C48 29.5487 42.6301 24.146 35.9326 24.146ZM32.4001 19.3168C37.0426 19.3168 40.8001 15.5364 40.8001 10.8656C40.8001 6.19482 37.0426 2.41443 32.4001 2.41443C30.5169 2.41443 28.7971 3.05996 27.3962 4.11296C28.2601 5.78207 28.8001 7.65114 28.8001 9.65829C28.8001 12.3385 27.9054 14.7999 26.4309 16.8048C27.9527 18.3509 30.0601 19.3168 32.4001 19.3168Z" fill="#ff2a5b"/>
</svg>
