<svg width="192" height="299" viewBox="0 0 192 310" fill="none" xmlns="http://www.w3.org/2000/svg">
<path d="M62.544 118.305L71.8509 115.851C72.3004 115.732 72.5994 115.257 72.4739 114.781C72.3553 114.332 71.8611 114.066 71.4116 114.185L62.1048 116.639C61.6289 116.765 61.3633 117.259 61.4748 117.682C61.5934 118.131 62.0681 118.43 62.544 118.305ZM72.7433 119.235L63.4365 121.689C62.9606 121.815 62.695 122.309 62.8135 122.758C62.9251 123.181 63.4068 123.507 63.8827 123.381L73.1896 120.927C73.639 120.808 73.931 120.307 73.8125 119.858C73.687 119.382 73.1928 119.116 72.7433 119.235Z" fill="#ADADAD"/>
<path d="M158.544 295.815L167.851 293.361C168.3 293.242 168.599 292.767 168.474 292.291C168.355 291.842 167.861 291.576 167.412 291.695L158.105 294.149C157.629 294.275 157.363 294.769 157.475 295.192C157.593 295.641 158.068 295.94 158.544 295.815ZM168.743 296.745L159.436 299.199C158.961 299.325 158.695 299.819 158.814 300.268C158.925 300.691 159.407 301.017 159.883 300.891L169.19 298.437C169.639 298.318 169.931 297.817 169.813 297.368C169.687 296.892 169.193 296.626 168.743 296.745Z" fill="#ADADAD"/>
<path d="M11.7205 185.145L21.2242 186.669C21.6832 186.742 22.1487 186.429 22.2266 185.943C22.3002 185.484 21.9558 185.041 21.4968 184.968L11.9931 183.444C11.5071 183.367 11.0642 183.711 10.995 184.143C10.9214 184.602 11.2345 185.068 11.7205 185.145ZM20.6702 190.125L11.1666 188.601C10.6806 188.523 10.2377 188.868 10.1641 189.327C10.0949 189.759 10.4036 190.251 10.8896 190.329L20.3933 191.853C20.8523 191.926 21.3222 191.586 21.3957 191.127C21.4736 190.641 21.1292 190.198 20.6702 190.125Z" fill="#ADADAD"/>
<path d="M60.6034 172.56L70.2118 171.996C70.6759 171.968 71.0629 171.562 71.034 171.071C71.0068 170.607 70.5749 170.249 70.1108 170.276L60.5024 170.84C60.0111 170.869 59.653 171.301 59.6786 171.738C59.7059 172.202 60.1121 172.589 60.6034 172.56ZM70.4171 175.49L60.8086 176.054C60.3173 176.083 59.9592 176.515 59.9864 176.979C60.0121 177.415 60.4199 177.83 60.9112 177.801L70.5197 177.237C70.9837 177.209 71.3691 176.776 71.3419 176.312C71.313 175.82 70.8811 175.462 70.4171 175.49Z" fill="#ADADAD"/>
<path d="M131.944 83.0801L141.545 83.7588C142.009 83.7916 142.445 83.4386 142.48 82.9477C142.512 82.484 142.13 82.0732 141.666 82.0404L132.065 81.3617C131.574 81.327 131.164 81.7092 131.133 82.1456C131.1 82.6093 131.453 83.0454 131.944 83.0801ZM141.298 87.2501L131.697 86.5714C131.206 86.5367 130.795 86.9188 130.763 87.3825C130.732 87.8189 131.083 88.2823 131.574 88.317L141.175 88.9957C141.639 89.0285 142.077 88.6483 142.109 88.1846C142.144 87.6936 141.762 87.2829 141.298 87.2501Z" fill="#ADADAD"/>
<path d="M163.944 5.0801L173.545 5.75879C174.009 5.79157 174.445 5.43863 174.48 4.94767C174.512 4.48398 174.13 4.0732 173.666 4.04042L164.065 3.36173C163.574 3.32703 163.164 3.70917 163.133 4.14558C163.1 4.60927 163.453 5.0454 163.944 5.0801ZM173.298 9.25008L163.697 8.57139C163.206 8.53668 162.795 8.91883 162.763 9.38251C162.732 9.81892 163.083 10.2823 163.574 10.317L173.175 10.9957C173.639 11.0285 174.077 10.6483 174.109 10.1846C174.144 9.69364 173.762 9.28286 173.298 9.25008Z" fill="#ADADAD"/>
<path d="M22.944 285.08L32.545 285.759C33.0087 285.792 33.4448 285.439 33.4795 284.948C33.5123 284.484 33.1302 284.073 32.6665 284.04L23.0654 283.362C22.5745 283.327 22.1637 283.709 22.1328 284.146C22.1001 284.609 22.453 285.045 22.944 285.08ZM32.2982 289.25L22.6972 288.571C22.2062 288.537 21.7954 288.919 21.7627 289.383C21.7318 289.819 22.0828 290.282 22.5738 290.317L32.1748 290.996C32.6385 291.029 33.0766 290.648 33.1093 290.185C33.144 289.694 32.7619 289.283 32.2982 289.25Z" fill="#ADADAD"/>
<path d="M177.544 245.815L186.851 243.361C187.3 243.242 187.599 242.767 187.474 242.291C187.355 241.842 186.861 241.576 186.412 241.695L177.105 244.149C176.629 244.275 176.363 244.769 176.475 245.192C176.593 245.641 177.068 245.94 177.544 245.815ZM187.743 246.745L178.436 249.199C177.961 249.325 177.695 249.819 177.814 250.268C177.925 250.691 178.407 251.017 178.883 250.891L188.19 248.437C188.639 248.318 188.931 247.817 188.813 247.368C188.687 246.892 188.193 246.626 187.743 246.745Z" fill="#ADADAD"/>
<path d="M21.6034 107.677L31.2118 107.112C31.6759 107.085 32.0629 106.679 32.034 106.188C32.0068 105.723 31.5749 105.365 31.1108 105.393L21.5024 105.957C21.0111 105.986 20.653 106.418 20.6786 106.854C20.7059 107.319 21.1121 107.706 21.6034 107.677ZM31.4171 110.606L21.8086 111.171C21.3173 111.199 20.9592 111.631 20.9864 112.095C21.0121 112.532 21.4199 112.946 21.9112 112.918L31.5197 112.353C31.9837 112.326 32.3691 111.893 32.3419 111.428C32.313 110.937 31.8811 110.579 31.4171 110.606Z" fill="#ADADAD"/>
<path d="M2.72047 139.145L12.2242 140.668C12.6832 140.742 13.1487 140.428 13.2266 139.942C13.3002 139.483 12.9558 139.041 12.4968 138.967L2.9931 137.444C2.50712 137.366 2.06422 137.71 1.99498 138.142C1.92141 138.601 2.23448 139.067 2.72047 139.145ZM11.6702 144.124L2.16655 142.601C1.68057 142.523 1.23767 142.867 1.1641 143.326C1.09486 143.758 1.40361 144.251 1.88959 144.329L11.3933 145.852C11.8523 145.925 12.3222 145.585 12.3957 145.126C12.4736 144.64 12.1292 144.197 11.6702 144.124Z" fill="#ADADAD"/>
<path d="M169.603 160.677L179.212 160.113C179.676 160.086 180.063 159.679 180.034 159.188C180.007 158.724 179.575 158.366 179.111 158.393L169.502 158.957C169.011 158.986 168.653 159.418 168.679 159.855C168.706 160.319 169.112 160.706 169.603 160.677ZM179.417 163.607L169.809 164.171C169.317 164.2 168.959 164.632 168.986 165.096C169.012 165.533 169.42 165.947 169.911 165.918L179.52 165.354C179.984 165.327 180.369 164.893 180.342 164.429C180.313 163.938 179.881 163.58 179.417 163.607Z" fill="#ADADAD"/>
<path d="M11.544 242.815L20.8509 240.361C21.3004 240.242 21.5994 239.767 21.4739 239.291C21.3553 238.842 20.8611 238.576 20.4116 238.695L11.1048 241.149C10.6289 241.275 10.3633 241.769 10.4748 242.192C10.5934 242.641 11.0681 242.94 11.544 242.815ZM21.7433 243.745L12.4365 246.199C11.9606 246.325 11.695 246.819 11.8135 247.268C11.9251 247.691 12.4068 248.017 12.8827 247.891L22.1896 245.437C22.639 245.318 22.931 244.817 22.8125 244.368C22.687 243.892 22.1928 243.626 21.7433 243.745Z" fill="#ADADAD"/>
<path d="M155.544 128.815L164.851 126.361C165.3 126.242 165.599 125.767 165.474 125.291C165.355 124.842 164.861 124.576 164.412 124.695L155.105 127.149C154.629 127.275 154.363 127.769 154.475 128.192C154.593 128.641 155.068 128.94 155.544 128.815ZM165.743 129.745L156.436 132.199C155.961 132.325 155.695 132.819 155.814 133.268C155.925 133.691 156.407 134.017 156.883 133.891L166.19 131.437C166.639 131.318 166.931 130.817 166.813 130.368C166.687 129.892 166.193 129.626 165.743 129.745Z" fill="#ADADAD"/>
<path d="M133.544 38.8148L142.851 36.3605C143.3 36.242 143.599 35.7673 143.474 35.2913C143.355 34.8419 142.861 34.5763 142.412 34.6948L133.105 37.149C132.629 37.2745 132.363 37.7688 132.475 38.1918C132.593 38.6413 133.068 38.9403 133.544 38.8148ZM143.743 39.7448L134.436 42.1991C133.961 42.3246 133.695 42.8188 133.814 43.2683C133.925 43.6913 134.407 44.0167 134.883 43.8912L144.19 41.437C144.639 41.3185 144.931 40.8173 144.813 40.3678C144.687 39.8919 144.193 39.6263 143.743 39.7448Z" fill="#ADADAD"/>
<path d="M53.544 21.8148L62.8509 19.3605C63.3004 19.242 63.5994 18.7673 63.4739 18.2913C63.3553 17.8419 62.8611 17.5763 62.4116 17.6948L53.1048 20.149C52.6289 20.2745 52.3633 20.7688 52.4748 21.1918C52.5934 21.6413 53.0681 21.9403 53.544 21.8148ZM63.7433 22.7448L54.4365 25.1991C53.9606 25.3246 53.695 25.8188 53.8135 26.2683C53.9251 26.6913 54.4068 27.0167 54.8827 26.8912L64.1896 24.437C64.639 24.3185 64.931 23.8173 64.8125 23.3678C64.687 22.8919 64.1928 22.6263 63.7433 22.7448Z" fill="#ADADAD"/>
<path d="M84.7205 61.1447L94.2242 62.668C94.6832 62.7415 95.1487 62.4285 95.2266 61.9425C95.3002 61.4835 94.9558 61.0406 94.4968 60.967L84.9931 59.4438C84.5071 59.3659 84.0642 59.7103 83.995 60.1423C83.9214 60.6012 84.2345 61.0668 84.7205 61.1447ZM93.6702 66.1239L84.1666 64.6006C83.6806 64.5227 83.2377 64.8671 83.1641 65.3261C83.0949 65.7581 83.4036 66.2506 83.8896 66.3285L93.3933 67.8518C93.8523 67.9254 94.3222 67.5853 94.3957 67.1263C94.4736 66.6403 94.1292 66.1974 93.6702 66.1239Z" fill="#ADADAD"/>
<path d="M147.603 186.56L157.212 185.996C157.676 185.968 158.063 185.562 158.034 185.071C158.007 184.607 157.575 184.249 157.111 184.276L147.502 184.84C147.011 184.869 146.653 185.301 146.679 185.738C146.706 186.202 147.112 186.589 147.603 186.56ZM157.417 189.49L147.809 190.054C147.317 190.083 146.959 190.515 146.986 190.979C147.012 191.415 147.42 191.83 147.911 191.801L157.52 191.237C157.984 191.209 158.369 190.776 158.342 190.312C158.313 189.82 157.881 189.462 157.417 189.49Z" fill="#ADADAD"/>
<path d="M104.944 146.08L114.545 146.759C115.009 146.792 115.445 146.439 115.48 145.948C115.512 145.484 115.13 145.073 114.666 145.04L105.065 144.362C104.574 144.327 104.164 144.709 104.133 145.146C104.1 145.609 104.453 146.045 104.944 146.08ZM114.298 150.25L104.697 149.571C104.206 149.537 103.795 149.919 103.763 150.383C103.732 150.819 104.083 151.282 104.574 151.317L114.175 151.996C114.639 152.029 115.077 151.648 115.109 151.185C115.144 150.694 114.762 150.283 114.298 150.25Z" fill="#ADADAD"/>
<path d="M95.944 300.08L105.545 300.759C106.009 300.792 106.445 300.439 106.48 299.948C106.512 299.484 106.13 299.073 105.666 299.041L96.0654 298.362C95.5745 298.327 95.1637 298.709 95.1328 299.146C95.1001 299.61 95.453 300.046 95.944 300.08ZM105.298 304.25L95.6972 303.572C95.2062 303.537 94.7954 303.919 94.7627 304.383C94.7318 304.819 95.0828 305.283 95.5738 305.317L105.175 305.996C105.639 306.029 106.077 305.649 106.109 305.185C106.144 304.694 105.762 304.283 105.298 304.25Z" fill="#ADADAD"/>
<path d="M175.944 68.0803L185.545 68.759C186.009 68.7918 186.445 68.4389 186.48 67.9479C186.512 67.4842 186.13 67.0734 185.666 67.0407L176.065 66.362C175.574 66.3273 175.164 66.7094 175.133 67.1458C175.1 67.6095 175.453 68.0456 175.944 68.0803ZM185.298 72.2503L175.697 71.5716C175.206 71.5369 174.795 71.9191 174.763 72.3828C174.732 72.8192 175.083 73.2826 175.574 73.3173L185.175 73.996C185.639 74.0287 186.077 73.6485 186.109 73.1848C186.144 72.6939 185.762 72.2831 185.298 72.2503Z" fill="#ADADAD"/>
<path d="M3.94397 53.0803L13.545 53.759C14.0087 53.7918 14.4448 53.4389 14.4795 52.9479C14.5123 52.4842 14.1302 52.0734 13.6665 52.0407L4.06544 51.362C3.57448 51.3273 3.1637 51.7094 3.13285 52.1458C3.10007 52.6095 3.45301 53.0456 3.94397 53.0803ZM13.2982 57.2503L3.69718 56.5716C3.20621 56.5369 2.79543 56.9191 2.76265 57.3828C2.7318 57.8192 3.08281 58.2826 3.57378 58.3173L13.1748 58.996C13.6385 59.0287 14.0766 58.6485 14.1093 58.1848C14.144 57.6939 13.7619 57.2831 13.2982 57.2503Z" fill="#ADADAD"/>
</svg>
