<svg width="39" height="34" viewBox="0 0 39 34" fill="none" xmlns="http://www.w3.org/2000/svg">
<path d="M37.7719 18.1818L26.9896 28.4208C26.4677 28.9161 25.7026 29.0514 25.0441 28.7667C24.3854 28.4808 23.9584 27.8279 23.9584 27.1066L23.9515 21.7537L14.3739 21.7536C13.0503 21.7536 11.978 20.6748 11.978 19.3445V14.5261C11.978 13.1958 13.051 12.1169 14.3739 12.1169L23.9515 12.117L23.9584 6.69632C23.9584 5.97522 24.3854 5.32233 25.0441 5.03624C25.7028 4.75158 26.468 4.88687 26.9896 5.38211L37.7719 15.6211C38.4902 16.2319 38.4902 17.4967 37.7719 18.1818Z" fill="#ff2a5b"/>
<path opacity="0.4" d="M7.18321 33.7286H11.972C13.2964 33.7286 14.3664 32.652 14.3664 31.3194C14.3664 29.9868 13.2964 28.9102 11.972 28.9102H7.18321C5.86105 28.9102 4.78881 27.8313 4.78881 26.501V7.22755C4.78881 5.89723 5.86105 4.81837 7.18321 4.81837H11.972C13.2964 4.81837 14.3664 3.7395 14.3664 2.40918C14.3664 1.07886 13.2964 0 11.972 0H7.18321C3.21598 0 0 3.23583 0 7.22755V26.501C0 30.4912 3.21598 33.7286 7.18321 33.7286Z" fill="#ff2a5b"/>
</svg>
