<svg width="21" height="17" viewBox="0 0 21 17" fill="none" xmlns="http://www.w3.org/2000/svg">
<path d="M20.1094 7.65234C18.2109 3.32812 14.4141 0.375 10.125 0.375C5.80078 0.375 2.00391 3.32812 0.105469 7.65234C0.0351562 7.82812 0 8.07422 0 8.25C0 8.42578 0.0351562 8.70703 0.105469 8.88281C2.00391 13.207 5.80078 16.125 10.125 16.125C14.4141 16.125 18.2109 13.207 20.1094 8.88281C20.1797 8.70703 20.25 8.42578 20.25 8.25C20.25 8.07422 20.1797 7.82812 20.1094 7.65234ZM10.125 14.4375C6.60938 14.4375 3.375 12.082 1.6875 8.28516C3.41016 4.45312 6.60938 2.0625 10.125 2.0625C13.6055 2.0625 16.8398 4.45312 18.5273 8.25C16.8047 12.082 13.6055 14.4375 10.125 14.4375ZM10.125 3.75C7.62891 3.75 5.625 5.78906 5.625 8.25C5.625 10.7461 7.62891 12.75 10.125 12.75C12.5859 12.75 14.625 10.7461 14.625 8.28516C14.625 5.78906 12.5859 3.75 10.125 3.75ZM10.125 11.0625C8.54297 11.0625 7.3125 9.83203 7.3125 8.25C7.3125 8.25 7.3125 8.21484 7.3125 8.17969C7.48828 8.25 7.66406 8.25 7.875 8.25C9.10547 8.25 10.125 7.26562 10.125 6C10.125 5.82422 10.0898 5.64844 10.0195 5.47266C10.0547 5.47266 10.0898 5.4375 10.125 5.4375C11.6719 5.4375 12.9375 6.70312 12.9375 8.28516C12.9375 9.83203 11.6719 11.0625 10.125 11.0625Z" fill="#C4C4C4"/>
</svg>
