<svg width="189" height="299" viewBox="0 0 189 299" fill="none" xmlns="http://www.w3.org/2000/svg">
<path d="M96.6118 290.719L93.497 296.065C93.3802 296.265 93.1896 296.4 92.978 296.456C92.7401 296.519 92.5076 296.495 92.3072 296.379L86.9612 293.264C86.6605 293.089 86.4836 292.739 86.5321 292.387C86.5807 292.035 86.8422 291.74 87.1859 291.649L89.7241 290.98L88.3854 285.903C88.2669 285.454 88.5325 284.96 89.0084 284.834L90.7006 284.388C91.15 284.269 91.6512 284.562 91.7697 285.011L93.1084 290.087L95.6466 289.418C95.9639 289.334 96.337 289.462 96.5528 289.745C96.7687 290.027 96.787 290.418 96.6118 290.719Z" fill="#FFA4CB"/>
<path d="M66.9931 8.17803L63.8783 13.524C63.7615 13.7244 63.5709 13.8595 63.3594 13.9153C63.1214 13.9781 62.889 13.9545 62.6885 13.8377L57.3426 10.7229C57.0419 10.5477 56.8649 10.1984 56.9135 9.8463C56.962 9.49416 57.2235 9.19897 57.5672 9.10833L60.1055 8.439L58.7668 3.36254C58.6483 2.91306 58.9138 2.41885 59.3898 2.29335L61.0819 1.84713C61.5314 1.7286 62.0326 2.02061 62.1511 2.47009L63.4898 7.54655L66.028 6.87722C66.3453 6.79355 66.7183 6.92141 66.9342 7.20382C67.1501 7.48624 67.1684 7.87732 66.9931 8.17803Z" fill="#FFA4CB"/>
<path d="M156.007 163.768L150.995 167.396C150.807 167.532 150.578 167.578 150.362 167.543C150.119 167.504 149.916 167.389 149.78 167.201L146.153 162.189C145.948 161.907 145.928 161.516 146.115 161.213C146.302 160.911 146.661 160.747 147.012 160.803L149.603 161.219L150.434 156.035C150.508 155.576 150.951 155.231 151.437 155.309L153.165 155.586C153.624 155.66 153.964 156.13 153.89 156.589L153.059 161.773L155.651 162.188C155.975 162.24 156.265 162.508 156.348 162.853C156.431 163.199 156.289 163.564 156.007 163.768Z" fill="#FFA4CB"/>
<path d="M64.6929 64.285L60.582 68.909C60.4278 69.0824 60.2142 69.1771 59.9959 69.1899C59.7502 69.2044 59.527 69.1353 59.3536 68.9811L54.7296 64.8702C54.4695 64.6389 54.3652 64.2616 54.4824 63.926C54.5997 63.5904 54.9144 63.3528 55.2693 63.332L57.8898 63.1781L57.5819 57.9371C57.5547 57.4731 57.9128 57.0412 58.4041 57.0123L60.1511 56.9097C60.6152 56.8824 61.0487 57.2678 61.0759 57.7319L61.3837 62.9729L64.0042 62.8189C64.3318 62.7997 64.6722 62.9988 64.8279 63.3184C64.9836 63.6379 64.9242 64.0249 64.6929 64.285Z" fill="#FFA4CB"/>
<path d="M187.606 133.954L182.934 138.01C182.759 138.162 182.535 138.228 182.316 138.213C182.071 138.196 181.858 138.098 181.706 137.923L177.651 133.251C177.423 132.988 177.368 132.6 177.527 132.282C177.687 131.965 178.03 131.77 178.384 131.795L181.003 131.98L181.373 126.743C181.406 126.279 181.816 125.897 182.307 125.932L184.053 126.055C184.517 126.088 184.897 126.526 184.864 126.99L184.494 132.227L187.112 132.412C187.44 132.435 187.752 132.676 187.865 133.013C187.978 133.35 187.869 133.726 187.606 133.954Z" fill="#FFA4CB"/>
<path d="M169.993 198.178L166.878 203.524C166.762 203.724 166.571 203.86 166.359 203.915C166.121 203.978 165.889 203.955 165.689 203.838L160.343 200.723C160.042 200.548 159.865 200.198 159.913 199.846C159.962 199.494 160.224 199.199 160.567 199.108L163.105 198.439L161.767 193.363C161.648 192.913 161.914 192.419 162.39 192.293L164.082 191.847C164.531 191.729 165.033 192.021 165.151 192.47L166.49 197.547L169.028 196.877C169.345 196.794 169.718 196.921 169.934 197.204C170.15 197.486 170.168 197.877 169.993 198.178Z" fill="#FFA4CB"/>
<path d="M124.693 193.285L120.582 197.909C120.428 198.082 120.214 198.177 119.996 198.19C119.75 198.204 119.527 198.135 119.354 197.981L114.73 193.87C114.47 193.639 114.365 193.261 114.482 192.926C114.6 192.59 114.914 192.353 115.269 192.332L117.89 192.178L117.582 186.937C117.555 186.473 117.913 186.041 118.404 186.012L120.151 185.91C120.615 185.882 121.049 186.268 121.076 186.732L121.384 191.973L124.004 191.819C124.332 191.8 124.672 191.999 124.828 192.318C124.984 192.638 124.924 193.025 124.693 193.285Z" fill="#FFA4CB"/>
<path d="M80.9931 231.178L77.8783 236.524C77.7615 236.724 77.5709 236.859 77.3594 236.915C77.1214 236.978 76.889 236.954 76.6885 236.838L71.3426 233.723C71.0419 233.548 70.8649 233.198 70.9135 232.846C70.962 232.494 71.2235 232.199 71.5672 232.108L74.1055 231.439L72.7668 226.362C72.6483 225.913 72.9138 225.419 73.3898 225.293L75.0819 224.847C75.5314 224.728 76.0326 225.02 76.1511 225.47L77.4898 230.546L80.028 229.877C80.3453 229.793 80.7183 229.921 80.9342 230.204C81.1501 230.486 81.1684 230.877 80.9931 231.178Z" fill="#FFA4CB"/>
<path d="M32.0072 110.768L26.995 114.395C26.807 114.531 26.578 114.578 26.362 114.543C26.119 114.504 25.916 114.389 25.78 114.201L22.1525 109.188C21.9485 108.907 21.9281 108.516 22.115 108.213C22.3019 107.911 22.6605 107.747 23.0115 107.803L25.6034 108.218L26.4343 103.035C26.5079 102.576 26.9508 102.231 27.4368 102.309L29.1647 102.586C29.6237 102.66 29.9638 103.13 29.8902 103.589L29.0593 108.772L31.6512 109.188C31.9752 109.24 32.2646 109.508 32.3477 109.853C32.4307 110.199 32.2892 110.564 32.0072 110.768Z" fill="#FFA4CB"/>
<path d="M130.693 237.285L126.582 241.909C126.428 242.082 126.214 242.177 125.996 242.19C125.75 242.204 125.527 242.135 125.354 241.981L120.73 237.87C120.47 237.639 120.365 237.262 120.482 236.926C120.6 236.59 120.914 236.353 121.269 236.332L123.89 236.178L123.582 230.937C123.555 230.473 123.913 230.041 124.404 230.012L126.151 229.91C126.615 229.882 127.049 230.268 127.076 230.732L127.384 235.973L130.004 235.819C130.332 235.8 130.672 235.999 130.828 236.318C130.984 236.638 130.924 237.025 130.693 237.285Z" fill="#FFA4CB"/>
<path d="M37.6064 274.955L32.9338 279.01C32.7586 279.162 32.5346 279.229 32.3164 279.213C32.0709 279.196 31.8585 279.099 31.7064 278.923L27.6508 274.251C27.4226 273.988 27.3678 273.6 27.5273 273.283C27.6868 272.965 28.0296 272.77 28.3842 272.795L31.0026 272.98L31.3728 267.743C31.4056 267.279 31.8164 266.897 32.3073 266.932L34.053 267.055C34.5167 267.088 34.8969 267.526 34.8641 267.99L34.4939 273.227L37.1124 273.412C37.4397 273.435 37.7516 273.676 37.8648 274.013C37.9781 274.35 37.8692 274.726 37.6064 274.955Z" fill="#FFA4CB"/>
<path d="M11.9931 146.178L8.87831 151.524C8.76151 151.724 8.57091 151.86 8.35939 151.915C8.12143 151.978 7.88899 151.955 7.68852 151.838L2.34258 148.723C2.04187 148.548 1.86494 148.198 1.91347 147.846C1.962 147.494 2.2235 147.199 2.56722 147.108L5.10545 146.439L3.76678 141.363C3.64826 140.913 3.91383 140.419 4.38975 140.293L6.0819 139.847C6.53138 139.729 7.03256 140.021 7.15109 140.47L8.48976 145.547L11.028 144.877C11.3453 144.794 11.7183 144.921 11.9342 145.204C12.1501 145.486 12.1684 145.877 11.9931 146.178Z" fill="#FFA4CB"/>
<path d="M14.9931 210.178L11.8783 215.524C11.7615 215.724 11.5709 215.86 11.3594 215.915C11.1214 215.978 10.889 215.955 10.6885 215.838L5.34258 212.723C5.04187 212.548 4.86494 212.198 4.91347 211.846C4.962 211.494 5.2235 211.199 5.56722 211.108L8.10545 210.439L6.76678 205.363C6.64826 204.913 6.91383 204.419 7.38975 204.293L9.0819 203.847C9.53138 203.729 10.0326 204.021 10.1511 204.47L11.4898 209.547L14.028 208.877C14.3453 208.794 14.7183 208.921 14.9342 209.204C15.1501 209.486 15.1684 209.877 14.9931 210.178Z" fill="#FFA4CB"/>
<path d="M147.993 29.1783L144.878 34.5242C144.762 34.7247 144.571 34.8598 144.359 34.9156C144.121 34.9783 143.889 34.9548 143.689 34.838L138.343 31.7231C138.042 31.5479 137.865 31.1987 137.913 30.8465C137.962 30.4944 138.224 30.1992 138.567 30.1086L141.105 29.4392L139.767 24.3628C139.648 23.9133 139.914 23.4191 140.39 23.2936L142.082 22.8474C142.531 22.7288 143.033 23.0209 143.151 23.4703L144.49 28.5468L147.028 27.8775C147.345 27.7938 147.718 27.9217 147.934 28.2041C148.15 28.4865 148.168 28.8776 147.993 29.1783Z" fill="#FFA4CB"/>
<path d="M49.0072 182.768L43.995 186.396C43.807 186.532 43.578 186.578 43.362 186.543C43.119 186.504 42.916 186.389 42.78 186.201L39.1525 181.189C38.9485 180.907 38.9281 180.516 39.115 180.213C39.3019 179.911 39.6605 179.747 40.0115 179.803L42.6034 180.219L43.4343 175.035C43.5079 174.576 43.9508 174.231 44.4368 174.309L46.1647 174.586C46.6237 174.66 46.9638 175.13 46.8902 175.589L46.0593 180.773L48.6512 181.188C48.9752 181.24 49.2646 181.508 49.3477 181.853C49.4307 182.199 49.2892 182.564 49.0072 182.768Z" fill="#FFA4CB"/>
<path d="M151.693 78.285L147.582 82.909C147.428 83.0824 147.214 83.1771 146.996 83.1899C146.75 83.2044 146.527 83.1353 146.354 82.9811L141.73 78.8702C141.47 78.6389 141.365 78.2616 141.482 77.926C141.6 77.5904 141.914 77.3528 142.269 77.332L144.89 77.1781L144.582 71.9371C144.555 71.4731 144.913 71.0412 145.404 71.0123L147.151 70.9097C147.615 70.8824 148.049 71.2678 148.076 71.7319L148.384 76.9729L151.004 76.8189C151.332 76.7997 151.672 76.9988 151.828 77.3184C151.984 77.6379 151.924 78.0249 151.693 78.285Z" fill="#FFA4CB"/>
<path d="M108.606 38.9544L103.934 43.01C103.759 43.1621 103.535 43.2285 103.316 43.2131C103.071 43.1957 102.858 43.0985 102.706 42.9233L98.6508 38.2507C98.4226 37.9878 98.3678 37.6002 98.5273 37.2825C98.6868 36.9648 99.0296 36.7698 99.3842 36.7948L102.003 36.9799L102.373 31.743C102.406 31.2793 102.816 30.8972 103.307 30.9319L105.053 31.0553C105.517 31.0881 105.897 31.5261 105.864 31.9898L105.494 37.2267L108.112 37.4118C108.44 37.435 108.752 37.6763 108.865 38.0133C108.978 38.3502 108.869 38.7263 108.606 38.9544Z" fill="#FFA4CB"/>
</svg>
