<svg width="9" height="10" viewBox="0 0 9 10" fill="none" xmlns="http://www.w3.org/2000/svg">
<path d="M8.30469 6.32422L5.17969 9.44922C5.0625 9.56641 4.90625 9.625 4.75 9.625C4.57422 9.625 4.41797 9.56641 4.30078 9.44922L1.17578 6.32422C1 6.14844 0.941406 5.875 1.03906 5.64062C1.13672 5.40625 1.37109 5.25 1.625 5.25H3.5V1.5C3.5 1.16797 3.77344 0.875 4.125 0.875H5.375C5.70703 0.875 6 1.16797 6 1.5V5.25H7.875C8.10938 5.25 8.34375 5.40625 8.44141 5.64062C8.53906 5.875 8.48047 6.14844 8.30469 6.32422Z" fill="#FF2A5B"/>
</svg>
