<svg width="32" height="28" viewBox="0 0 32 28" fill="none" xmlns="http://www.w3.org/2000/svg">
<path d="M29.7143 23.3333H2.22143C1.02357 23.3333 0 24.376 0 25.601C0 26.826 1.02357 28 2.22143 28H29.65C30.9786 28 32 26.9573 32 25.6667C32 24.376 30.9786 23.3333 29.7143 23.3333ZM29.7143 0H2.22143C1.02357 0 0 1.0449 0 2.26771C0 3.49052 1.02357 4.66667 2.22143 4.66667H29.65C30.9786 4.66667 32 3.62396 32 2.33333C32 1.04271 30.9786 0 29.7143 0Z" fill="#333333"/>
<path opacity="0.4" d="M32 13.9999C32 15.2884 30.9764 16.3333 29.7786 16.3333H2.22143C1.02357 16.3333 0 15.2906 0 13.9999C0 12.7093 1.02357 11.6666 2.22143 11.6666H29.65C30.9786 11.6666 32 12.7093 32 13.9999Z" fill="#333333"/>
</svg>
