<svg width="36" height="36" viewBox="0 0 36 36" fill="none" xmlns="http://www.w3.org/2000/svg">
<path d="M5.14286 3.85714C5.85177 3.85714 6.42857 4.43395 6.42857 5.14286C6.42857 5.85177 5.85161 6.42857 5.14286 6.42857C4.43411 6.42857 3.85714 5.85 3.85714 5.14286C3.85714 4.43571 4.43411 3.85714 5.14286 3.85714ZM5.14286 0C2.30223 0 0 2.30223 0 5.14286C0 7.98348 2.30223 10.2857 5.14286 10.2857C7.98348 10.2857 10.2857 7.98348 10.2857 5.14286C10.2857 2.30223 7.98348 0 5.14286 0ZM30.8571 3.85714C31.5661 3.85714 32.1429 4.43395 32.1429 5.14286C32.1429 5.85177 31.5643 6.42857 30.8571 6.42857C30.15 6.42857 29.5714 5.85 29.5714 5.14286C29.5714 4.43571 30.15 3.85714 30.8571 3.85714ZM30.8571 0C28.0165 0 25.7143 2.30223 25.7143 5.14286C25.7143 7.98348 28.0165 10.2857 30.8571 10.2857C33.6978 10.2857 36 7.98348 36 5.14286C36 2.30223 33.6937 0 30.8571 0ZM5.14286 29.5714C5.85177 29.5714 6.42857 30.1482 6.42857 30.8571C6.42857 31.5661 5.85161 32.1429 5.14286 32.1429C4.43411 32.1429 3.85714 31.5643 3.85714 30.8571C3.85714 30.15 4.43411 29.5714 5.14286 29.5714ZM5.14286 25.7143C2.30223 25.7143 0 28.0165 0 30.8571C0 33.6978 2.30223 36 5.14286 36C7.98348 36 10.2857 33.6978 10.2857 30.8571C10.2857 28.0165 7.98348 25.7143 5.14286 25.7143ZM30.8571 29.5714C31.5661 29.5714 32.1429 30.1482 32.1429 30.8571C32.1429 31.5661 31.5661 32.1429 30.8571 32.1429C30.1482 32.1429 29.5714 31.5661 29.5714 30.8571C29.5714 30.1482 30.15 29.5714 30.8571 29.5714ZM30.8571 25.7143C28.0165 25.7143 25.7143 28.0165 25.7143 30.8571C25.7143 33.6978 28.0165 36 30.8571 36C33.6978 36 36 33.6978 36 30.8571C36 28.0165 33.6937 25.7143 30.8571 25.7143Z" fill="#ff2a5b"/>
<path opacity="0.4" d="M9.75374 28.7334C10.2006 29.4775 9.47687 29.3404 9.47687 30.2667C9.47687 31.1929 9.20241 32.0519 8.75569 32.8H27C26.5512 32.0559 26.2749 31.1929 26.2749 30.2667C26.2749 29.3404 27.5494 29.4815 27.9961 28.7334H9.75374ZM3.39999 9.29354V26.9046C4.16781 26.4692 4.04774 26.2 4.99999 26.2C5.95224 26.2 6.83218 26.4674 7.59999 26.9027V9.29164C6.83218 9.72896 5.95224 9.99812 4.99999 9.99812C4.04774 9.99812 4.16781 9.72896 3.39999 9.29354ZM31 10C30.0477 10 29.1678 9.7326 28.4 9.29734V26.9065C29.1637 26.4692 30.0494 26.2 31 26.2C31.9506 26.2 31.8322 26.4674 32.6 26.9027V9.29354C31.8362 9.73086 31.9506 10 31 10ZM9.47687 3.40002C9.92374 4.14815 10.2 4.00552 10.2 4.93336C10.2 5.86119 9.92374 6.72252 9.47687 7.46669H26.5231C26.0762 6.72252 25.8 5.85961 25.8 4.93336C25.8 4.00711 26.0745 4.14815 26.5212 3.40002H9.47687Z" fill="#ff2a5b"/>
<path d="M26.2482 24.6832L24.3031 22.6458L25.3411 20.6171C25.4519 20.4022 25.415 20.1399 25.2509 19.968L24.6724 19.3647C24.4672 19.1497 24.135 19.1497 23.9298 19.3647L19.6857 23.8134C19.4805 24.0283 19.4805 24.3779 19.6857 24.5883L20.2628 25.1944C20.427 25.3664 20.6771 25.405 20.8823 25.2889L22.7897 24.2015L24.7348 26.2389C24.94 26.4537 25.2765 26.4537 25.4817 26.2389L26.2203 25.4653C26.455 25.2504 26.455 24.8963 26.2482 24.6832ZM12.0694 19.3612C11.8642 19.1463 11.5307 19.1463 11.3294 19.3612L10.751 19.9656C10.5868 20.1375 10.5499 20.3995 10.6607 20.6147L11.6987 22.6434L9.75389 24.6832C9.54871 24.8981 9.54871 25.2504 9.75389 25.4653L10.4925 26.2389C10.6977 26.4537 11.0342 26.4537 11.2394 26.2389L13.1845 24.2015L15.0919 25.2889C15.2971 25.405 15.5472 25.3664 15.7114 25.1944L16.2859 24.5883C16.4911 24.3734 16.4911 24.0238 16.2859 23.8134L12.0694 19.3612Z" fill="#ff2a5b"/>
<path opacity="0.4" d="M10.1013 9.60449C9.80969 9.56324 9.56343 9.81075 9.6045 10.1038L10.0399 12.6823L20.5081 23.2L23.1071 20.5595L12.6681 10.0419L10.1013 9.60449ZM25.92 9.60449L23.3532 10.0418L18.7828 14.662L21.3818 17.3025L25.9522 12.6823L26.3876 10.1038C26.4589 9.81076 26.2125 9.56325 25.92 9.60449ZM12.8856 20.5566L15.4846 23.1971L17.2382 21.4355L14.6392 18.795L12.8856 20.5566Z" fill="#ff2a5b"/>
</svg>
