<svg width="40" height="34" viewBox="0 0 40 34" fill="none" xmlns="http://www.w3.org/2000/svg">
<path d="M26.2698 18.1818L15.2879 28.4209C14.7563 28.9161 13.977 29.0514 13.3064 28.7667C12.6357 28.4811 12.2013 27.8261 12.2013 27.1033V21.6827H2.44027C1.0921 21.6827 0 20.6061 0 19.2735V14.4551C0 13.1248 1.0921 12.0459 2.44027 12.0459H12.2029V6.62527C12.2029 5.90417 12.6378 5.25129 13.3087 4.9652C13.9796 4.68054 14.759 4.81583 15.2902 5.31106L26.2721 15.5501C27.0015 16.2319 27.0015 17.4967 26.2698 18.1818Z" fill="#ff2a5b"/>
<path opacity="0.4" d="M31.7034 0H26.826C25.4793 0 24.3872 1.07886 24.3872 2.40918C24.3872 3.7395 25.4793 4.81837 26.826 4.81837H31.7034C33.0501 4.81837 34.1422 5.89723 34.1422 7.22755V26.501C34.1422 27.8313 33.0501 28.9102 31.7034 28.9102H26.826C25.4793 28.9102 24.3872 29.9891 24.3872 31.3194C24.3872 32.6497 25.4793 33.7286 26.826 33.7286H31.7034C35.7441 33.7286 39.0197 30.4927 39.0197 26.501V7.22755C39.0197 3.23583 35.7426 0 31.7034 0Z" fill="#ff2a5b"/>
</svg>
