<svg width="9" height="10" viewBox="0 0 9 10" fill="none" xmlns="http://www.w3.org/2000/svg">
<path d="M0.695313 3.67578L3.82031 0.550781C3.9375 0.433593 4.09375 0.375 4.25 0.375C4.42578 0.375 4.58203 0.433593 4.69922 0.550781L7.82422 3.67578C8 3.85156 8.05859 4.125 7.96094 4.35937C7.86328 4.59375 7.62891 4.75 7.375 4.75L5.5 4.75L5.5 8.5C5.5 8.83203 5.22656 9.125 4.875 9.125L3.625 9.125C3.29297 9.125 3 8.83203 3 8.5L3 4.75L1.125 4.75C0.890625 4.75 0.65625 4.59375 0.558594 4.35937C0.460938 4.125 0.519532 3.85156 0.695313 3.67578Z" fill="#4e9a51"/>
</svg>
