<svg width="151" height="164" viewBox="0 0 151 164" fill="none" xmlns="http://www.w3.org/2000/svg">
<g filter="url(#filter0_d_397_137)">
<path d="M63.102 6.19628C66.7281 4.10277 70.8413 3.00063 75.0284 3.00063C79.2154 3.00063 83.3286 4.10277 86.9547 6.19628L129.13 30.5464C132.756 32.6399 135.768 35.6511 137.861 39.2772C139.955 42.9033 141.057 47.0166 141.057 51.2036V99.9039C141.057 104.091 139.955 108.204 137.861 111.83C135.768 115.456 132.756 118.468 129.13 120.561L86.9547 144.911C83.3286 147.005 79.2154 148.107 75.0284 148.107C70.8413 148.107 66.7281 147.005 63.102 144.911L20.9263 120.561C17.3002 118.468 14.2891 115.456 12.1956 111.83C10.1021 108.204 8.99996 104.091 9 99.9039V51.2036C8.99996 47.0166 10.1021 42.9033 12.1956 39.2772C14.2891 35.6511 17.3002 32.6399 20.9263 30.5464L63.102 6.19628Z" fill="url(#paint0_linear_397_137)"/>
</g>
<g filter="url(#filter1_d_397_137)">
<path d="M66.5095 22.1187C69.0995 20.6233 72.0375 19.8361 75.0283 19.8361C78.019 19.8361 80.957 20.6233 83.5471 22.1187L117.046 41.4564C119.636 42.9517 121.786 45.1026 123.282 47.6927C124.777 50.2828 125.564 53.221 125.564 56.2118V94.8914C125.564 97.8822 124.777 100.82 123.282 103.41C121.786 106.001 119.636 108.151 117.046 109.647L83.5471 128.99C80.957 130.485 78.019 131.272 75.0283 131.272C72.0375 131.272 69.0995 130.485 66.5095 128.99L33.011 109.652C30.4209 108.156 28.2701 106.006 26.7747 103.416C25.2793 100.825 24.4921 97.8873 24.4922 94.8965V56.216C24.4921 53.2252 25.2793 50.2871 26.7747 47.697C28.2701 45.1069 30.4209 42.956 33.011 41.4606L66.5095 22.1187Z" fill="white"/>
</g>
<path d="M102.094 42.7563H96.587L92.6777 46.5958H102.094C102.602 46.5971 103.089 46.8 103.447 47.1599C103.805 47.5198 104.006 48.0072 104.005 48.515V51.4396C104.002 55.3201 102.687 59.0856 100.274 62.1247C98.2293 64.6971 95.4818 66.6207 92.3651 67.6619L89.6706 68.5683C89.2395 68.7135 88.8739 69.007 88.6389 69.3965C88.4039 69.786 88.3148 70.2463 88.3874 70.6953C88.46 71.1444 88.6896 71.5531 89.0353 71.8488C89.3811 72.1444 89.8205 72.3078 90.2754 72.3098C90.4809 72.3094 90.685 72.2766 90.8802 72.2126L93.5747 71.3088C97.3913 70.0317 100.756 67.675 103.26 64.5244C106.212 60.8016 107.821 56.191 107.827 51.4396V48.515C107.829 46.9918 107.226 45.53 106.151 44.4504C105.077 43.3708 103.618 42.7615 102.094 42.7563V42.7563Z" fill="#FFA716"/>
<path d="M60.3862 68.5685L57.6917 67.6689C54.5747 66.6252 51.8274 64.6996 49.7829 62.1257C47.3699 59.0866 46.055 55.3211 46.0516 51.4406V48.5152C46.0507 48.0074 46.2515 47.52 46.6098 47.1601C46.9681 46.8002 47.4546 46.5973 47.9624 46.5959H57.8357L53.4698 42.7565H47.9624C46.4393 42.7619 44.9805 43.3713 43.906 44.4508C42.8315 45.5304 42.2291 46.9921 42.231 48.5152V51.4397C42.2363 56.1912 43.8455 60.8018 46.7979 64.5246C49.3026 67.6751 52.6666 70.0322 56.4829 71.3107L59.1774 72.2128C59.3727 72.2768 59.5768 72.3096 59.7822 72.3099C60.2371 72.308 60.6766 72.1446 61.0223 71.849C61.368 71.5533 61.5976 71.1446 61.6702 70.6955C61.7428 70.2465 61.6537 69.7862 61.4187 69.3967C61.1838 69.0072 60.8182 68.7137 60.3871 68.5685H60.3862Z" fill="#FFD400"/>
<path d="M81.316 80.4452V83.3058C81.3137 83.5602 81.3622 83.8124 81.4586 84.0478C81.5549 84.2832 81.6973 84.497 81.8772 84.6768C82.0572 84.8565 82.2712 84.9986 82.5068 85.0946C82.7423 85.1907 82.9946 85.2388 83.2489 85.2362C84.0104 85.2346 84.7647 85.3833 85.4686 85.6738C86.1725 85.9643 86.8122 86.3908 87.351 86.9289C87.8897 87.4671 88.317 88.1062 88.6083 88.8098C88.8996 89.5133 89.0492 90.2675 89.0485 91.029V94.8914C89.0508 95.1457 89.0024 95.398 88.906 95.6334C88.8096 95.8688 88.6673 96.0826 88.4873 96.2623C88.3073 96.4421 88.0933 96.5841 87.8578 96.6802C87.6223 96.7762 87.37 96.8244 87.1156 96.8217H63.6608C63.4065 96.8244 63.1542 96.7762 62.9186 96.6802C62.6831 96.5841 62.4691 96.4421 62.2891 96.2623C62.1091 96.0826 61.9668 95.8688 61.8704 95.6334C61.7741 95.398 61.7256 95.1457 61.7279 94.8914V91.0256C61.7272 90.2641 61.8768 89.5099 62.1681 88.8064C62.4594 88.1028 62.8867 87.4637 63.4255 86.9255C63.9642 86.3874 64.6039 85.9609 65.3078 85.6704C66.0117 85.3799 66.766 85.2312 67.5275 85.2328C67.7816 85.2354 68.0336 85.1874 68.2689 85.0915C68.5042 84.9957 68.718 84.8539 68.898 84.6746C69.0779 84.4952 69.2203 84.2818 69.3169 84.0468C69.4134 83.8118 69.4622 83.5599 69.4604 83.3058V80.4452C65.9239 79.3224 62.7872 77.2016 60.4277 74.3379C58.0682 71.4743 56.5865 67.9898 56.1609 64.3038L53.7637 42.7563H97.0128L94.6156 64.3038C94.1899 67.9898 92.7082 71.4743 90.3488 74.3379C87.9893 77.2016 84.8525 79.3224 81.316 80.4452Z" fill="#FFD400"/>
<path d="M87.1156 96.8183H75.3887V42.7563H97.0136L94.6165 64.3038C94.1908 67.9898 92.7091 71.4743 90.3496 74.3379C87.9902 77.2016 84.8534 79.3224 81.3169 80.4452V83.3058C81.3146 83.5602 81.3631 83.8124 81.4594 84.0478C81.5558 84.2832 81.6981 84.497 81.8781 84.6768C82.0581 84.8565 82.2721 84.9986 82.5076 85.0946C82.7432 85.1907 82.9955 85.2388 83.2498 85.2362C84.0113 85.2346 84.7656 85.3833 85.4695 85.6738C86.1734 85.9643 86.8131 86.3908 87.3518 86.9289C87.8906 87.4671 88.3179 88.1062 88.6092 88.8098C88.9005 89.5133 89.0501 90.2675 89.0494 91.029V94.8914C89.0512 95.1455 89.0024 95.3975 88.9058 95.6325C88.8092 95.8676 88.6667 96.081 88.4867 96.2604C88.3067 96.4398 88.0927 96.5815 87.8573 96.6773C87.6219 96.7731 87.3698 96.8211 87.1156 96.8183Z" fill="#FF9F00"/>
<path d="M84.6854 57.4002C84.5715 57.0495 84.3615 56.7378 84.0793 56.5005C83.7971 56.2632 83.454 56.1097 83.089 56.0577L78.7274 55.4435L76.7808 51.6449C76.6035 51.3409 76.3467 51.0909 76.0379 50.9219C75.7292 50.7529 75.3802 50.6712 75.0285 50.6857C74.6768 50.6712 74.3278 50.7529 74.0191 50.9219C73.7103 51.0909 73.4535 51.3409 73.2762 51.6449L71.3288 55.4435L66.9672 56.0568C66.6021 56.1091 66.259 56.2628 65.9768 56.5002C65.6947 56.7377 65.4847 57.0495 65.3707 57.4002C65.2717 57.7453 65.2703 58.1111 65.3665 58.4569C65.4628 58.8028 65.6529 59.1152 65.9159 59.3595L69.0313 62.3139L68.2918 66.4574C68.2351 66.8117 68.2777 67.1747 68.4149 67.5062C68.5521 67.8377 68.7785 68.1247 69.0689 68.3353C69.3594 68.5459 69.7026 68.6718 70.0603 68.6991C70.418 68.7264 70.7763 68.654 71.0954 68.49L75.0285 66.4949L78.9616 68.49C79.2808 68.6541 79.6391 68.7265 79.997 68.6992C80.3548 68.6719 80.698 68.5458 80.9885 68.3351C81.279 68.1244 81.5054 67.8373 81.6425 67.5057C81.7796 67.174 81.8221 66.8109 81.7652 66.4566L81.0257 62.313L84.1411 59.3587C84.4041 59.1144 84.5944 58.802 84.6906 58.4561C84.7868 58.1102 84.7853 57.7444 84.6863 57.3994L84.6854 57.4002Z" fill="#FF9F00"/>
<path d="M92.6878 94.4346V106.191H58.0887V94.4346C58.084 94.1811 58.1298 93.9293 58.2236 93.6937C58.3174 93.4582 58.4572 93.2438 58.635 93.063C58.8127 92.8822 59.0246 92.7387 59.2585 92.6408C59.4924 92.543 59.7434 92.4928 59.9969 92.4931H90.7805C91.0339 92.4929 91.2848 92.5432 91.5186 92.6411C91.7524 92.739 91.9643 92.8825 92.1419 93.0633C92.3195 93.2441 92.4593 93.4585 92.553 93.6939C92.6467 93.9294 92.6926 94.1812 92.6878 94.4346Z" fill="#EDEDED"/>
<path d="M79.1761 68.4899L75.3887 66.4931V50.6857C75.7312 50.6734 76.0704 50.7567 76.3684 50.9261C76.6664 51.0954 76.9115 51.3443 77.0762 51.6449L78.9504 55.4434L83.1501 56.0576C83.506 56.1148 83.8386 56.2711 84.1098 56.5085C84.381 56.746 84.5798 57.055 84.6835 57.4002C84.7795 57.7438 84.7814 58.1069 84.6891 58.4516C84.5968 58.7963 84.4137 59.1098 84.1588 59.3595L81.1636 62.3113L81.8757 66.4557C81.9329 66.8076 81.8933 67.1684 81.7613 67.4995C81.6292 67.8307 81.4097 68.1197 81.1261 68.3358C80.8506 68.5468 80.5199 68.6736 80.1739 68.701C79.8279 68.7283 79.4814 68.6551 79.1761 68.4899Z" fill="#FF7816"/>
<path d="M92.6886 94.4346V106.191H75.3887V92.4931H90.7804C91.0339 92.4928 91.285 92.543 91.5188 92.6408C91.7527 92.7387 91.9647 92.8822 92.1424 93.063C92.3201 93.2438 92.46 93.4582 92.5538 93.6937C92.6475 93.9293 92.6934 94.1811 92.6886 94.4346Z" fill="#D7D7D7"/>
<path d="M96.2921 106.548C96.2864 106.794 96.2319 107.035 96.1318 107.259C96.0317 107.483 95.888 107.685 95.7091 107.852C95.5302 108.02 95.3196 108.151 95.0898 108.236C94.8599 108.322 94.6153 108.36 94.3702 108.35H55.6855C55.4405 108.36 55.1959 108.322 54.966 108.236C54.7361 108.151 54.5255 108.02 54.3466 107.852C54.1677 107.685 54.024 107.483 53.9239 107.259C53.8238 107.035 53.7693 106.794 53.7637 106.548C53.7693 106.303 53.8238 106.062 53.9239 105.838C54.024 105.614 54.1677 105.412 54.3466 105.244C54.5255 105.077 54.7361 104.946 54.966 104.861C55.1959 104.775 55.4405 104.737 55.6855 104.747H94.3711C94.6161 104.737 94.8606 104.776 95.0904 104.861C95.3201 104.947 95.5306 105.077 95.7094 105.245C95.8882 105.412 96.0319 105.614 96.1319 105.838C96.2319 106.062 96.2864 106.303 96.2921 106.548Z" fill="#DBDBDB"/>
<path d="M96.2929 106.549C96.285 106.796 96.2279 107.039 96.1249 107.264C96.022 107.489 95.8753 107.691 95.6934 107.859C95.5115 108.027 95.2981 108.157 95.0655 108.241C94.8329 108.325 94.5858 108.363 94.3387 108.35H74.668V104.747H94.3387C94.5858 104.735 94.8329 104.772 95.0655 104.856C95.2981 104.941 95.5115 105.071 95.6934 105.238C95.8753 105.406 96.022 105.608 96.1249 105.833C96.2279 106.058 96.285 106.301 96.2929 106.549Z" fill="#B0B0B0"/>
<defs>
<filter id="filter0_d_397_137" x="0" y="0.00063324" width="150.057" height="163.106" filterUnits="userSpaceOnUse" color-interpolation-filters="sRGB">
<feFlood flood-opacity="0" result="BackgroundImageFix"/>
<feColorMatrix in="SourceAlpha" type="matrix" values="0 0 0 0 0 0 0 0 0 0 0 0 0 0 0 0 0 0 127 0" result="hardAlpha"/>
<feOffset dy="6"/>
<feGaussianBlur stdDeviation="4.5"/>
<feColorMatrix type="matrix" values="0 0 0 0 1 0 0 0 0 0.643137 0 0 0 0 0.796078 0 0 0 1 0"/>
<feBlend mode="normal" in2="BackgroundImageFix" result="effect1_dropShadow_397_137"/>
<feBlend mode="normal" in="SourceGraphic" in2="effect1_dropShadow_397_137" result="shape"/>
</filter>
<filter id="filter1_d_397_137" x="15.4922" y="16.8361" width="119.072" height="129.436" filterUnits="userSpaceOnUse" color-interpolation-filters="sRGB">
<feFlood flood-opacity="0" result="BackgroundImageFix"/>
<feColorMatrix in="SourceAlpha" type="matrix" values="0 0 0 0 0 0 0 0 0 0 0 0 0 0 0 0 0 0 127 0" result="hardAlpha"/>
<feOffset dy="6"/>
<feGaussianBlur stdDeviation="4.5"/>
<feColorMatrix type="matrix" values="0 0 0 0 0.988235 0 0 0 0 0.67451 0 0 0 0 0.811765 0 0 0 1 0"/>
<feBlend mode="normal" in2="BackgroundImageFix" result="effect1_dropShadow_397_137"/>
<feBlend mode="normal" in="SourceGraphic" in2="effect1_dropShadow_397_137" result="shape"/>
</filter>
<linearGradient id="paint0_linear_397_137" x1="109.099" y1="35.6495" x2="49.2387" y2="132.989" gradientUnits="userSpaceOnUse">
<stop stop-color="#E5FAFF"/>
<stop offset="1" stop-color="#DEE8FF"/>
</linearGradient>
</defs>
</svg>
