<svg width="136" height="299" viewBox="0 0 136 277" fill="none" xmlns="http://www.w3.org/2000/svg">
<path d="M78.3173 229.958C77.6009 230.726 76.3972 230.768 75.6289 230.052C74.8606 229.335 74.8186 228.132 75.535 227.363L77.8937 224.834C78.6101 224.066 79.8138 224.024 80.5821 224.74C81.3504 225.457 81.3924 226.66 80.676 227.429L78.3173 229.958Z" fill="#F7B500"/>
<path d="M67.4568 4.89959C67.8844 5.85976 67.4526 6.98475 66.4925 7.41231C65.5323 7.83987 64.4073 7.4081 63.9797 6.44793L62.5722 3.28692C62.1446 2.32675 62.5764 1.20177 63.5365 0.774204C64.4967 0.346642 65.6217 0.77841 66.0493 1.73859L67.4568 4.89959Z" fill="#F7B500"/>
<path d="M135.191 221.629C135.618 222.589 135.187 223.714 134.226 224.142C133.266 224.569 132.141 224.137 131.714 223.177L130.306 220.016C129.878 219.056 130.31 217.931 131.27 217.504C132.231 217.076 133.356 217.508 133.783 218.468L135.191 221.629Z" fill="#F7B500"/>
<path d="M20.9072 113.063C20.1907 113.831 18.9871 113.873 18.2188 113.157C17.4505 112.44 17.4084 111.237 18.1249 110.469L20.4835 107.939C21.2 107.171 22.4036 107.129 23.1719 107.845C23.9402 108.562 23.9823 109.765 23.2658 110.534L20.9072 113.063Z" fill="#F7B500"/>
<path d="M110.135 9.65608C109.418 10.4244 108.215 10.4664 107.446 9.74997C106.678 9.03351 106.636 7.82988 107.352 7.06158L109.711 4.53224C110.428 3.76394 111.631 3.72191 112.399 4.43836C113.168 5.15482 113.21 6.35845 112.493 7.12675L110.135 9.65608Z" fill="#E5FAFF"/>
<path d="M20.9072 275.609C20.1907 276.377 18.9871 276.419 18.2188 275.703C17.4505 274.986 17.4084 273.783 18.1249 273.015L20.4835 270.485C21.2 269.717 22.4036 269.675 23.1719 270.391C23.9402 271.108 23.9823 272.311 23.2658 273.08L20.9072 275.609Z" fill="#E5FAFF"/>
<path d="M109.719 187.814C110.366 188.642 110.219 189.838 109.391 190.485C108.564 191.132 107.368 190.986 106.721 190.158L104.59 187.433C103.943 186.605 104.09 185.409 104.918 184.762C105.745 184.115 106.941 184.261 107.588 185.089L109.719 187.814Z" fill="#E5FAFF"/>
<path d="M6.46587 143.401C7.41796 143.845 7.82988 144.976 7.38591 145.928C6.94194 146.881 5.81021 147.292 4.85811 146.849L1.72371 145.387C0.771616 144.943 0.359699 143.811 0.803668 142.859C1.24764 141.907 2.37937 141.495 3.33146 141.939L6.46587 143.401Z" fill="#D958FD"/>
<path d="M54.1924 179.368C55.1445 179.812 55.5564 180.944 55.1125 181.896C54.6685 182.848 53.5368 183.26 52.5847 182.816L49.4503 181.354C48.4982 180.91 48.0863 179.779 48.5302 178.827C48.9742 177.875 50.1059 177.463 51.058 177.907L54.1924 179.368Z" fill="#D958FD"/>
<path d="M36.5945 210.649C36.988 211.623 36.5174 212.732 35.5434 213.125C34.5694 213.519 33.4608 213.048 33.0672 212.074L31.7717 208.868C31.3782 207.893 31.8487 206.785 32.8228 206.391C33.7968 205.998 34.9054 206.468 35.2989 207.442L36.5945 210.649Z" fill="#E5FAFF"/>
<path d="M120.496 260.43C120.154 261.424 119.072 261.952 118.078 261.61C117.085 261.268 116.557 260.185 116.899 259.192L118.025 255.922C118.367 254.928 119.45 254.401 120.443 254.743C121.436 255.085 121.964 256.167 121.622 257.16L120.496 260.43Z" fill="#52F2FB"/>
<path d="M33.6252 21.5536C34.2429 22.4035 34.0547 23.5932 33.2048 24.2109C32.355 24.8286 31.1653 24.6404 30.5476 23.7905L28.514 20.9927C27.8963 20.1428 28.0845 18.9531 28.9344 18.3354C29.7842 17.7177 30.974 17.9059 31.5917 18.7558L33.6252 21.5536Z" fill="#52F2FB"/>
<path d="M118.703 110.781C119.321 111.631 119.132 112.821 118.282 113.439C117.433 114.056 116.243 113.868 115.625 113.018L113.592 110.22C112.974 109.371 113.162 108.181 114.012 107.563C114.862 106.945 116.052 107.134 116.669 107.984L118.703 110.781Z" fill="#52F2FB"/>
<path d="M62.3303 258.802C62.948 259.652 62.7598 260.841 61.9099 261.459C61.0601 262.077 59.8703 261.888 59.2526 261.039L57.2191 258.241C56.6014 257.391 56.7896 256.201 57.6395 255.583C58.4893 254.966 59.679 255.154 60.2967 256.004L62.3303 258.802Z" fill="#FFA4CB"/>
<path d="M9.41623 182.025C10.0339 182.875 9.84573 184.065 8.99586 184.683C8.14599 185.3 6.95628 185.112 6.33858 184.262L4.30502 181.464C3.68731 180.614 3.87552 179.425 4.72539 178.807C5.57526 178.189 6.76497 178.377 7.38267 179.227L9.41623 182.025Z" fill="#FFA4CB"/>
<path d="M73.5939 54.9087C73.4836 55.954 72.5468 56.7119 71.5015 56.6016C70.4562 56.4913 69.6983 55.5545 69.8086 54.5093L70.1717 51.0681C70.282 50.0229 71.2188 49.2649 72.2641 49.3752C73.3094 49.4855 74.0673 50.4223 73.957 51.4676L73.5939 54.9087Z" fill="#FFA4CB"/>
<path d="M134.808 168.101C134.697 169.147 133.761 169.905 132.715 169.794C131.67 169.684 130.912 168.747 131.022 167.702L131.386 164.261C131.496 163.215 132.433 162.458 133.478 162.568C134.523 162.678 135.281 163.615 135.171 164.66L134.808 168.101Z" fill="#FFA4CB"/>
<path d="M132.353 58.6691C133.305 59.1131 133.717 60.2448 133.273 61.1969C132.829 62.149 131.697 62.5609 130.745 62.117L127.61 60.6554C126.658 60.2114 126.246 59.0797 126.69 58.1276C127.134 57.1755 128.266 56.7635 129.218 57.2075L132.353 58.6691Z" fill="#D958FD"/>
<path d="M1.76 222.94C0.792473 222.529 0.341117 221.412 0.751871 220.444C1.16262 219.477 2.27994 219.026 3.24747 219.436L6.43268 220.789C7.40021 221.199 7.85157 222.317 7.44082 223.284C7.03006 224.252 5.91274 224.703 4.94521 224.292L1.76 222.94Z" fill="#52F2FB"/>
<path d="M6.36888 54.1383C7.34291 53.7447 8.45153 54.2153 8.84506 55.1893C9.2386 56.1634 8.76801 57.272 7.79399 57.6655L4.58739 58.9611C3.61336 59.3546 2.50474 58.884 2.11121 57.91C1.71768 56.936 2.18826 55.8273 3.16228 55.4338L6.36888 54.1383Z" fill="#FFA4CB"/>
</svg>
